<svg width="288" height="349" viewBox="0 0 288 349" fill="none" xmlns="http://www.w3.org/2000/svg">
<mask id="path-1-outside-1_605_41" maskUnits="userSpaceOnUse" x="5.91992" y="311.4" width="275" height="38" fill="black">
<rect fill="white" x="5.91992" y="311.4" width="275" height="38"/>
<path d="M21.3599 313.4H30.4799C36.2399 313.4 40.0799 317.24 40.0799 323V326.84H32.3999V323.96C32.3999 321.656 30.8639 320.12 28.5599 320.12H15.5999V319.16C15.5999 315.704 17.9039 313.4 21.3599 313.4ZM15.5999 340.28H28.5599C30.8639 340.28 32.3999 338.744 32.3999 336.44V333.56H40.0799V337.4C40.0799 343.16 36.2399 347 30.4799 347H21.3599C17.9039 347 15.5999 344.696 15.5999 341.24V340.28H7.91992V320.12H15.5999V326.84H38.1599V327.8C38.1599 331.256 35.8559 333.56 32.3999 333.56H15.5999V340.28Z"/>
<path d="M55.6912 326.84H72.4912V323.96C72.4912 321.656 70.9552 320.12 68.6512 320.12H59.5312C57.2272 320.12 55.6912 321.656 55.6912 323.96V326.84ZM72.4912 333.56H80.1712V347H72.4912V333.56ZM48.0112 326.84V323C48.0112 317.24 51.8512 313.4 57.6112 313.4H70.5712C76.3312 313.4 80.1712 317.24 80.1712 323V326.84H78.2512V327.8C78.2512 331.256 75.9472 333.56 72.4912 333.56H55.6912V347H48.0112V332.6C48.0112 329.144 50.3152 326.84 53.7712 326.84H48.0112Z"/>
<path d="M113.051 313.4V320.12H96.2512V319.16C96.2512 315.704 98.5552 313.4 102.011 313.4H113.051ZM96.2512 347H88.5712V320.12H96.2512V347ZM115.163 320.12C118.619 320.12 120.731 323.864 120.731 327.32V347H113.051V320.12H115.163Z"/>
<path d="M157.931 313.4V320.12H136.811V319.16C136.811 315.704 139.115 313.4 142.571 313.4H157.931ZM136.811 340.28H129.131V320.12H136.811V340.28ZM154.091 325.88V332.6H142.427V331.64C142.427 328.184 144.731 325.88 148.187 325.88H154.091ZM161.771 340.28H154.091V332.6H161.771V340.28ZM159.851 346.04V347H142.571C139.115 347 136.811 344.696 136.811 341.24V340.28H154.091C157.547 340.28 159.851 342.584 159.851 346.04Z"/>
<path d="M177.371 347H169.691V313.4H177.371V326.84H192.923V327.8C192.923 331.256 190.619 333.56 187.163 333.56H177.371V347ZM191.435 313.4H199.115L195.947 326.84H188.267L191.435 313.4ZM199.595 347H191.531L187.163 333.56H195.227L199.595 347Z"/>
<path d="M220.457 313.4H229.577C235.337 313.4 239.177 317.24 239.177 323V340.28H231.497V323.96C231.497 321.656 229.961 320.12 227.657 320.12H214.697V319.16C214.697 315.704 217.001 313.4 220.457 313.4ZM225.737 347H216.617C210.857 347 207.017 343.16 207.017 337.4V320.12H214.697V336.44C214.697 338.744 216.233 340.28 218.537 340.28H231.497V341.24C231.497 344.696 229.193 347 225.737 347ZM219.737 333.56V326.84H226.457V333.56H219.737Z"/>
<path d="M255.257 347H247.577V313.4H255.257V326.84H270.809V327.8C270.809 331.256 268.505 333.56 265.049 333.56H255.257V347ZM269.321 313.4H277.001L273.833 326.84H266.153L269.321 313.4ZM277.481 347H269.417L265.049 333.56H273.113L277.481 347Z"/>
</mask>
<path d="M40.0799 326.84V328.84H42.0799V326.84H40.0799ZM32.3999 326.84H30.3999V328.84H32.3999V326.84ZM15.5999 320.12H13.5999V322.12H15.5999V320.12ZM32.3999 333.56V331.56H30.3999V333.56H32.3999ZM40.0799 333.56H42.0799V331.56H40.0799V333.56ZM7.91992 340.28H5.91992V342.28H7.91992V340.28ZM7.91992 320.12V318.12H5.91992V320.12H7.91992ZM15.5999 320.12H17.5999V318.12H15.5999V320.12ZM15.5999 326.84H13.5999V328.84H15.5999V326.84ZM38.1599 326.84H40.1599V324.84H38.1599V326.84ZM15.5999 333.56V331.56H13.5999V333.56H15.5999ZM55.6912 326.84H53.6912V328.84H55.6912V326.84ZM72.4912 326.84V328.84H74.4912V326.84H72.4912ZM72.4912 333.56V331.56H70.4912V333.56H72.4912ZM80.1712 333.56H82.1712V331.56H80.1712V333.56ZM80.1712 347V349H82.1712V347H80.1712ZM72.4912 347H70.4912V349H72.4912V347ZM48.0112 326.84H46.0112V328.84H48.0112V326.84ZM80.1712 326.84V328.84H82.1712V326.84H80.1712ZM78.2512 326.84V324.84H76.2512V326.84H78.2512ZM55.6912 333.56V331.56H53.6912V333.56H55.6912ZM55.6912 347V349H57.6912V347H55.6912ZM48.0112 347H46.0112V349H48.0112V347ZM113.051 313.4H115.051V311.4H113.051V313.4ZM113.051 320.12V322.12H115.051V320.12H113.051ZM96.2512 320.12H94.2512V322.12H96.2512V320.12ZM96.2512 347V349H98.2512V347H96.2512ZM88.5712 347H86.5712V349H88.5712V347ZM88.5712 320.12V318.12H86.5712V320.12H88.5712ZM96.2512 320.12H98.2512V318.12H96.2512V320.12ZM120.731 347V349H122.731V347H120.731ZM113.051 347H111.051V349H113.051V347ZM113.051 320.12V318.12H111.051V320.12H113.051ZM157.931 313.4H159.931V311.4H157.931V313.4ZM157.931 320.12V322.12H159.931V320.12H157.931ZM136.811 320.12H134.811V322.12H136.811V320.12ZM136.811 340.28V342.28H138.811V340.28H136.811ZM129.131 340.28H127.131V342.28H129.131V340.28ZM129.131 320.12V318.12H127.131V320.12H129.131ZM136.811 320.12H138.811V318.12H136.811V320.12ZM154.091 325.88H156.091V323.88H154.091V325.88ZM154.091 332.6V334.6H156.091V332.6H154.091ZM142.427 332.6H140.427V334.6H142.427V332.6ZM161.771 340.28V342.28H163.771V340.28H161.771ZM154.091 340.28H152.091V342.28H154.091V340.28ZM154.091 332.6V330.6H152.091V332.6H154.091ZM161.771 332.6H163.771V330.6H161.771V332.6ZM159.851 347V349H161.851V347H159.851ZM136.811 340.28V338.28H134.811V340.28H136.811ZM177.371 347V349H179.371V347H177.371ZM169.691 347H167.691V349H169.691V347ZM169.691 313.4V311.4H167.691V313.4H169.691ZM177.371 313.4H179.371V311.4H177.371V313.4ZM177.371 326.84H175.371V328.84H177.371V326.84ZM192.923 326.84H194.923V324.84H192.923V326.84ZM177.371 333.56V331.56H175.371V333.56H177.371ZM191.435 313.4V311.4H189.852L189.489 312.942L191.435 313.4ZM199.115 313.4L201.062 313.859L201.641 311.4H199.115V313.4ZM195.947 326.84V328.84H197.531L197.894 327.299L195.947 326.84ZM188.267 326.84L186.321 326.382L185.741 328.84H188.267V326.84ZM199.595 347V349H202.348L201.497 346.382L199.595 347ZM191.531 347L189.629 347.619L190.078 349H191.531V347ZM187.163 333.56V331.56H184.41L185.261 334.179L187.163 333.56ZM195.227 333.56L197.129 332.942L196.68 331.56H195.227V333.56ZM239.177 340.28V342.28H241.177V340.28H239.177ZM231.497 340.28H229.497V342.28H231.497V340.28ZM214.697 320.12H212.697V322.12H214.697V320.12ZM207.017 320.12V318.12H205.017V320.12H207.017ZM214.697 320.12H216.697V318.12H214.697V320.12ZM231.497 340.28H233.497V338.28H231.497V340.28ZM219.737 333.56H217.737V335.56H219.737V333.56ZM219.737 326.84V324.84H217.737V326.84H219.737ZM226.457 326.84H228.457V324.84H226.457V326.84ZM226.457 333.56V335.56H228.457V333.56H226.457ZM255.257 347V349H257.257V347H255.257ZM247.577 347H245.577V349H247.577V347ZM247.577 313.4V311.4H245.577V313.4H247.577ZM255.257 313.4H257.257V311.4H255.257V313.4ZM255.257 326.84H253.257V328.84H255.257V326.84ZM270.809 326.84H272.809V324.84H270.809V326.84ZM255.257 333.56V331.56H253.257V333.56H255.257ZM269.321 313.4V311.4H267.737L267.374 312.942L269.321 313.4ZM277.001 313.4L278.947 313.859L279.527 311.4H277.001V313.4ZM273.833 326.84V328.84H275.416L275.779 327.299L273.833 326.84ZM266.153 326.84L264.206 326.382L263.627 328.84H266.153V326.84ZM277.481 347V349H280.234L279.383 346.382L277.481 347ZM269.417 347L267.515 347.619L267.964 349H269.417V347ZM265.049 333.56V331.56H262.296L263.147 334.179L265.049 333.56ZM273.113 333.56L275.015 332.942L274.566 331.56H273.113V333.56ZM21.3599 315.4H30.4799V311.4H21.3599V315.4ZM30.4799 315.4C32.9054 315.4 34.7713 316.2 36.0257 317.455C37.2802 318.709 38.0799 320.575 38.0799 323H42.0799C42.0799 319.666 40.9597 316.732 38.8541 314.626C36.7486 312.521 33.8144 311.4 30.4799 311.4V315.4ZM38.0799 323V326.84H42.0799V323H38.0799ZM40.0799 324.84H32.3999V328.84H40.0799V324.84ZM34.3999 326.84V323.96H30.3999V326.84H34.3999ZM34.3999 323.96C34.3999 322.354 33.8557 320.86 32.7581 319.762C31.6606 318.665 30.1664 318.12 28.5599 318.12V322.12C29.2574 322.12 29.6833 322.344 29.9297 322.591C30.1762 322.837 30.3999 323.263 30.3999 323.96H34.3999ZM28.5599 318.12H15.5999V322.12H28.5599V318.12ZM17.5999 320.12V319.16H13.5999V320.12H17.5999ZM17.5999 319.16C17.5999 317.887 18.0157 316.981 18.5981 316.399C19.1806 315.816 20.0864 315.4 21.3599 315.4V311.4C19.1774 311.4 17.2033 312.137 15.7697 313.57C14.3362 315.004 13.5999 316.978 13.5999 319.16H17.5999ZM15.5999 342.28H28.5599V338.28H15.5999V342.28ZM28.5599 342.28C30.1664 342.28 31.6606 341.736 32.7581 340.639C33.8557 339.541 34.3999 338.047 34.3999 336.44H30.3999C30.3999 337.138 30.1762 337.564 29.9297 337.81C29.6833 338.057 29.2574 338.28 28.5599 338.28V342.28ZM34.3999 336.44V333.56H30.3999V336.44H34.3999ZM32.3999 335.56H40.0799V331.56H32.3999V335.56ZM38.0799 333.56V337.4H42.0799V333.56H38.0799ZM38.0799 337.4C38.0799 339.826 37.2802 341.692 36.0257 342.946C34.7713 344.201 32.9054 345 30.4799 345V349C33.8144 349 36.7486 347.88 38.8541 345.775C40.9597 343.669 42.0799 340.735 42.0799 337.4H38.0799ZM30.4799 345H21.3599V349H30.4799V345ZM21.3599 345C20.0864 345 19.1806 344.585 18.5981 344.002C18.0157 343.42 17.5999 342.514 17.5999 341.24H13.5999C13.5999 343.423 14.3361 345.397 15.7697 346.831C17.2033 348.264 19.1774 349 21.3599 349V345ZM17.5999 341.24V340.28H13.5999V341.24H17.5999ZM15.5999 338.28H7.91992V342.28H15.5999V338.28ZM9.91992 340.28V320.12H5.91992V340.28H9.91992ZM7.91992 322.12H15.5999V318.12H7.91992V322.12ZM13.5999 320.12V326.84H17.5999V320.12H13.5999ZM15.5999 328.84H38.1599V324.84H15.5999V328.84ZM36.1599 326.84V327.8H40.1599V326.84H36.1599ZM36.1599 327.8C36.1599 329.074 35.7441 329.98 35.1617 330.562C34.5793 331.145 33.6734 331.56 32.3999 331.56V335.56C34.5824 335.56 36.5566 334.824 37.9901 333.391C39.4237 331.957 40.1599 329.983 40.1599 327.8H36.1599ZM32.3999 331.56H15.5999V335.56H32.3999V331.56ZM13.5999 333.56V340.28H17.5999V333.56H13.5999ZM55.6912 328.84H72.4912V324.84H55.6912V328.84ZM74.4912 326.84V323.96H70.4912V326.84H74.4912ZM74.4912 323.96C74.4912 322.354 73.9469 320.86 72.8494 319.762C71.7518 318.665 70.2577 318.12 68.6512 318.12V322.12C69.3487 322.12 69.7745 322.344 70.021 322.591C70.2674 322.837 70.4912 323.263 70.4912 323.96H74.4912ZM68.6512 318.12H59.5312V322.12H68.6512V318.12ZM59.5312 318.12C57.9247 318.12 56.4305 318.665 55.333 319.762C54.2354 320.86 53.6912 322.354 53.6912 323.96H57.6912C57.6912 323.263 57.9149 322.837 58.1614 322.591C58.4078 322.344 58.8337 322.12 59.5312 322.12V318.12ZM53.6912 323.96V326.84H57.6912V323.96H53.6912ZM72.4912 335.56H80.1712V331.56H72.4912V335.56ZM78.1712 333.56V347H82.1712V333.56H78.1712ZM80.1712 345H72.4912V349H80.1712V345ZM74.4912 347V333.56H70.4912V347H74.4912ZM50.0112 326.84V323H46.0112V326.84H50.0112ZM50.0112 323C50.0112 320.575 50.8109 318.709 52.0654 317.455C53.3198 316.2 55.1857 315.4 57.6112 315.4V311.4C54.2767 311.4 51.3425 312.521 49.237 314.626C47.1314 316.732 46.0112 319.666 46.0112 323H50.0112ZM57.6112 315.4H70.5712V311.4H57.6112V315.4ZM70.5712 315.4C72.9967 315.4 74.8625 316.2 76.117 317.455C77.3714 318.709 78.1712 320.575 78.1712 323H82.1712C82.1712 319.666 81.0509 316.732 78.9454 314.626C76.8398 312.521 73.9057 311.4 70.5712 311.4V315.4ZM78.1712 323V326.84H82.1712V323H78.1712ZM80.1712 324.84H78.2512V328.84H80.1712V324.84ZM76.2512 326.84V327.8H80.2512V326.84H76.2512ZM76.2512 327.8C76.2512 329.074 75.8354 329.98 75.253 330.562C74.6705 331.145 73.7647 331.56 72.4912 331.56V335.56C74.6737 335.56 76.6478 334.824 78.0814 333.391C79.5149 331.957 80.2512 329.983 80.2512 327.8H76.2512ZM72.4912 331.56H55.6912V335.56H72.4912V331.56ZM53.6912 333.56V347H57.6912V333.56H53.6912ZM55.6912 345H48.0112V349H55.6912V345ZM50.0112 347V332.6H46.0112V347H50.0112ZM50.0112 332.6C50.0112 331.327 50.4269 330.421 51.0094 329.839C51.5918 329.256 52.4977 328.84 53.7712 328.84V324.84C51.5887 324.84 49.6145 325.577 48.181 327.01C46.7474 328.444 46.0112 330.418 46.0112 332.6H50.0112ZM53.7712 324.84H48.0112V328.84H53.7712V324.84ZM111.051 313.4V320.12H115.051V313.4H111.051ZM113.051 318.12H96.2512V322.12H113.051V318.12ZM98.2512 320.12V319.16H94.2512V320.12H98.2512ZM98.2512 319.16C98.2512 317.887 98.6669 316.981 99.2494 316.399C99.8318 315.816 100.738 315.4 102.011 315.4V311.4C99.8287 311.4 97.8545 312.137 96.421 313.57C94.9874 315.004 94.2512 316.978 94.2512 319.16H98.2512ZM102.011 315.4H113.051V311.4H102.011V315.4ZM96.2512 345H88.5712V349H96.2512V345ZM90.5712 347V320.12H86.5712V347H90.5712ZM88.5712 322.12H96.2512V318.12H88.5712V322.12ZM94.2512 320.12V347H98.2512V320.12H94.2512ZM115.163 322.12C116.083 322.12 116.92 322.596 117.606 323.573C118.309 324.574 118.731 325.965 118.731 327.32H122.731C122.731 325.22 122.098 323.01 120.88 321.276C119.646 319.517 117.7 318.12 115.163 318.12V322.12ZM118.731 327.32V347H122.731V327.32H118.731ZM120.731 345H113.051V349H120.731V345ZM115.051 347V320.12H111.051V347H115.051ZM113.051 322.12H115.163V318.12H113.051V322.12ZM155.931 313.4V320.12H159.931V313.4H155.931ZM157.931 318.12H136.811V322.12H157.931V318.12ZM138.811 320.12V319.16H134.811V320.12H138.811ZM138.811 319.16C138.811 317.887 139.227 316.981 139.809 316.399C140.392 315.816 141.298 315.4 142.571 315.4V311.4C140.389 311.4 138.415 312.137 136.981 313.57C135.547 315.004 134.811 316.978 134.811 319.16H138.811ZM142.571 315.4H157.931V311.4H142.571V315.4ZM136.811 338.28H129.131V342.28H136.811V338.28ZM131.131 340.28V320.12H127.131V340.28H131.131ZM129.131 322.12H136.811V318.12H129.131V322.12ZM134.811 320.12V340.28H138.811V320.12H134.811ZM152.091 325.88V332.6H156.091V325.88H152.091ZM154.091 330.6H142.427V334.6H154.091V330.6ZM144.427 332.6V331.64H140.427V332.6H144.427ZM144.427 331.64C144.427 330.367 144.843 329.461 145.425 328.879C146.008 328.296 146.914 327.88 148.187 327.88V323.88C146.005 323.88 144.031 324.617 142.597 326.05C141.163 327.484 140.427 329.458 140.427 331.64H144.427ZM148.187 327.88H154.091V323.88H148.187V327.88ZM161.771 338.28H154.091V342.28H161.771V338.28ZM156.091 340.28V332.6H152.091V340.28H156.091ZM154.091 334.6H161.771V330.6H154.091V334.6ZM159.771 332.6V340.28H163.771V332.6H159.771ZM157.851 346.04V347H161.851V346.04H157.851ZM159.851 345H142.571V349H159.851V345ZM142.571 345C141.298 345 140.392 344.585 139.809 344.002C139.227 343.42 138.811 342.514 138.811 341.24H134.811C134.811 343.423 135.547 345.397 136.981 346.831C138.415 348.264 140.389 349 142.571 349V345ZM138.811 341.24V340.28H134.811V341.24H138.811ZM136.811 342.28H154.091V338.28H136.811V342.28ZM154.091 342.28C155.365 342.28 156.271 342.696 156.853 343.279C157.435 343.861 157.851 344.767 157.851 346.04H161.851C161.851 343.858 161.115 341.884 159.681 340.45C158.248 339.017 156.274 338.28 154.091 338.28V342.28ZM177.371 345H169.691V349H177.371V345ZM171.691 347V313.4H167.691V347H171.691ZM169.691 315.4H177.371V311.4H169.691V315.4ZM175.371 313.4V326.84H179.371V313.4H175.371ZM177.371 328.84H192.923V324.84H177.371V328.84ZM190.923 326.84V327.8H194.923V326.84H190.923ZM190.923 327.8C190.923 329.074 190.507 329.98 189.925 330.562C189.343 331.145 188.437 331.56 187.163 331.56V335.56C189.346 335.56 191.32 334.824 192.753 333.391C194.187 331.957 194.923 329.983 194.923 327.8H190.923ZM187.163 331.56H177.371V335.56H187.163V331.56ZM175.371 333.56V347H179.371V333.56H175.371ZM191.435 315.4H199.115V311.4H191.435V315.4ZM197.169 312.942L194.001 326.382L197.894 327.299L201.062 313.859L197.169 312.942ZM195.947 324.84H188.267V328.84H195.947V324.84ZM190.214 327.299L193.382 313.859L189.489 312.942L186.321 326.382L190.214 327.299ZM199.595 345H191.531V349H199.595V345ZM193.433 346.382L189.065 332.942L185.261 334.179L189.629 347.619L193.433 346.382ZM187.163 335.56H195.227V331.56H187.163V335.56ZM193.325 334.179L197.693 347.619L201.497 346.382L197.129 332.942L193.325 334.179ZM220.457 315.4H229.577V311.4H220.457V315.4ZM229.577 315.4C232.002 315.4 233.868 316.2 235.123 317.455C236.377 318.709 237.177 320.575 237.177 323H241.177C241.177 319.666 240.057 316.732 237.951 314.626C235.845 312.521 232.911 311.4 229.577 311.4V315.4ZM237.177 323V340.28H241.177V323H237.177ZM239.177 338.28H231.497V342.28H239.177V338.28ZM233.497 340.28V323.96H229.497V340.28H233.497ZM233.497 323.96C233.497 322.354 232.953 320.86 231.855 319.762C230.757 318.665 229.263 318.12 227.657 318.12V322.12C228.354 322.12 228.78 322.344 229.027 322.591C229.273 322.837 229.497 323.263 229.497 323.96H233.497ZM227.657 318.12H214.697V322.12H227.657V318.12ZM216.697 320.12V319.16H212.697V320.12H216.697ZM216.697 319.16C216.697 317.887 217.113 316.981 217.695 316.399C218.277 315.816 219.183 315.4 220.457 315.4V311.4C218.274 311.4 216.3 312.137 214.867 313.57C213.433 315.004 212.697 316.978 212.697 319.16H216.697ZM225.737 345H216.617V349H225.737V345ZM216.617 345C214.191 345 212.325 344.201 211.071 342.946C209.817 341.692 209.017 339.826 209.017 337.4H205.017C205.017 340.735 206.137 343.669 208.243 345.775C210.348 347.88 213.282 349 216.617 349V345ZM209.017 337.4V320.12H205.017V337.4H209.017ZM207.017 322.12H214.697V318.12H207.017V322.12ZM212.697 320.12V336.44H216.697V320.12H212.697ZM212.697 336.44C212.697 338.047 213.241 339.541 214.339 340.639C215.436 341.736 216.93 342.28 218.537 342.28V338.28C217.839 338.28 217.413 338.057 217.167 337.81C216.921 337.564 216.697 337.138 216.697 336.44H212.697ZM218.537 342.28H231.497V338.28H218.537V342.28ZM229.497 340.28V341.24H233.497V340.28H229.497ZM229.497 341.24C229.497 342.514 229.081 343.42 228.499 344.002C227.916 344.585 227.01 345 225.737 345V349C227.919 349 229.893 348.264 231.327 346.831C232.761 345.397 233.497 343.423 233.497 341.24H229.497ZM221.737 333.56V326.84H217.737V333.56H221.737ZM219.737 328.84H226.457V324.84H219.737V328.84ZM224.457 326.84V333.56H228.457V326.84H224.457ZM226.457 331.56H219.737V335.56H226.457V331.56ZM255.257 345H247.577V349H255.257V345ZM249.577 347V313.4H245.577V347H249.577ZM247.577 315.4H255.257V311.4H247.577V315.4ZM253.257 313.4V326.84H257.257V313.4H253.257ZM255.257 328.84H270.809V324.84H255.257V328.84ZM268.809 326.84V327.8H272.809V326.84H268.809ZM268.809 327.8C268.809 329.074 268.393 329.98 267.811 330.562C267.228 331.145 266.322 331.56 265.049 331.56V335.56C267.231 335.56 269.205 334.824 270.639 333.391C272.073 331.957 272.809 329.983 272.809 327.8H268.809ZM265.049 331.56H255.257V335.56H265.049V331.56ZM253.257 333.56V347H257.257V333.56H253.257ZM269.321 315.4H277.001V311.4H269.321V315.4ZM275.054 312.942L271.886 326.382L275.779 327.299L278.947 313.859L275.054 312.942ZM273.833 324.84H266.153V328.84H273.833V324.84ZM268.099 327.299L271.267 313.859L267.374 312.942L264.206 326.382L268.099 327.299ZM277.481 345H269.417V349H277.481V345ZM271.319 346.382L266.951 332.942L263.147 334.179L267.515 347.619L271.319 346.382ZM265.049 335.56H273.113V331.56H265.049V335.56ZM271.211 334.179L275.579 347.619L279.383 346.382L275.015 332.942L271.211 334.179Z" fill="black" mask="url(#path-1-outside-1_605_41)"/>
<path d="M136 59H137V58V42C137 29.7728 132.92 19.5057 125.707 12.2929C118.494 5.08012 108.227 1 96 1H58C50.5728 1 44.3057 3.48012 39.8929 7.8929C35.4801 12.3057 33 18.5728 33 26V29H2H1V30V114V115H2H33V118C33 125.427 35.4801 131.694 39.8929 136.107C44.3057 140.52 50.5728 143 58 143H96C108.227 143 118.494 138.92 125.707 131.707C132.92 124.494 137 114.227 137 102V86V85H136H114.708C117.537 83.8362 120.028 82.1862 122.107 80.1071C126.52 75.6943 129 69.4273 129 62V59H136ZM103 57H35V31H88C92.5728 31 96.3057 32.5199 98.8929 35.1071C101.48 37.6943 103 41.4273 103 46V57ZM88 113H35V87H103V98C103 102.573 101.48 106.306 98.8929 108.893C96.3057 111.48 92.5728 113 88 113Z" stroke="black" stroke-width="2"/>
<path d="M186 2V1H185H153H152V2V58V59H153H184V62C184 74.3483 190.966 83.4435 202 86.1932V142V143H203H235H236V142V87H251H252V86V59H259.8C267.404 59 273.481 54.8698 277.619 48.9744C281.747 43.091 284 35.3863 284 28V2V1H283H251H250V2V57H186V2Z" stroke="black" stroke-width="2"/>
<path d="M136 270H137V269V197C137 184.773 132.92 174.506 125.707 167.293C118.494 160.08 108.227 156 96 156H58C50.5728 156 44.3057 158.48 39.8929 162.893C35.4801 167.306 33 173.573 33 181V184H2H1V185V257C1 269.227 5.08011 279.494 12.2929 286.707C19.5057 293.92 29.7728 298 42 298H80C87.4273 298 93.6943 295.52 98.1071 291.107C102.52 286.694 105 280.427 105 273V270H136ZM54 241V242H55H83H84V241V213V212H83H55H54V213V241ZM286 214H287V213V197C287 184.773 282.92 174.506 275.707 167.293C268.494 160.08 258.227 156 246 156H208C200.573 156 194.306 158.48 189.893 162.893C185.48 167.306 183 173.573 183 181V184H152H151V185V269V270H152H183V273C183 280.427 185.48 286.694 189.893 291.107C194.306 295.52 200.573 298 208 298H246C258.227 298 268.494 293.92 275.707 286.707C282.92 279.494 287 269.227 287 257V241V240H286H264.708C267.537 238.836 270.028 237.186 272.107 235.107C276.52 230.694 279 224.427 279 217V214H286ZM253 201V212H185V186H238C242.573 186 246.306 187.52 248.893 190.107C251.48 192.694 253 196.427 253 201ZM253 242V253C253 257.573 251.48 261.306 248.893 263.893C246.306 266.48 242.573 268 238 268H185V242H253ZM103 201V268H50C45.4272 268 41.6943 266.48 39.1071 263.893C36.5199 261.306 35 257.573 35 253V186H88C92.5728 186 96.3057 187.52 98.8929 190.107C101.48 192.694 103 196.427 103 201Z" stroke="black" stroke-width="2"/>
</svg>
