<svg width="634" height="142" viewBox="0 0 634 142" fill="none" xmlns="http://www.w3.org/2000/svg">
<path d="M624.039 128.2L624.039 110.92C624.039 107.848 621.991 105.8 618.919 105.8L615.079 105.8L615.079 95.5604L620.199 95.5604C627.879 95.5604 632.999 100.68 632.999 108.36L632.999 120.52C632.999 125.128 629.927 128.2 625.319 128.2L624.039 128.2ZM624.039 128.2L624.039 138.44L597.159 138.44L597.159 128.2L606.119 128.2L606.119 98.1204L607.399 98.1204C612.007 98.1204 615.079 101.192 615.079 105.8L615.079 128.2L624.039 128.2ZM588.199 120.52L588.199 108.36C588.199 100.68 593.319 95.5604 600.999 95.5604L606.119 95.5604L606.119 105.8L602.279 105.8C599.207 105.8 597.159 107.848 597.159 110.92L597.159 128.2L595.879 128.2C591.271 128.2 588.199 125.128 588.199 120.52ZM632.999 77.9454L632.999 88.1854L588.199 88.1854L588.199 77.9454L606.119 77.9454L606.119 57.2094L607.399 57.2094C612.007 57.2094 615.079 60.2814 615.079 64.8894L615.079 77.9454L632.999 77.9454ZM588.199 59.1934L588.199 48.9534L606.119 53.1774L606.119 63.4174L588.199 59.1934ZM632.999 48.3134L632.999 59.0654L615.079 64.8894L615.079 54.1374L632.999 48.3134ZM632.999 31.3779L632.999 41.6179L588.199 41.6179L588.199 31.3779L606.119 31.3779L606.119 10.6419L607.399 10.6419C612.007 10.6419 615.079 13.7139 615.079 18.3219L615.079 31.3779L632.999 31.3779ZM588.199 12.6259L588.199 2.38593L606.119 6.60992L606.119 16.8499L588.199 12.6259ZM632.999 1.74592L632.999 12.4979L615.079 18.3219L615.079 7.56991L632.999 1.74592Z" stroke="black" stroke-width="2"/>
<path d="M33 113H87C96.6 113 103 106.6 103 97V85H135V101C135 125 119 141 95 141H57C42.6 141 33 131.4 33 117V113ZM33 113H1V29H33V57H127V61C127 75.4 117.4 85 103 85H33V113ZM473.039 113H527.039C536.639 113 543.039 106.6 543.039 97V85H575.039V101C575.039 125 559.039 141 535.039 141H497.039C482.639 141 473.039 131.4 473.039 117V113ZM473.039 113H441.039V29H473.039V57H567.039V61C567.039 75.4 557.439 85 543.039 85H473.039V113ZM57 1H95C119 1 135 17 135 41V57H103V45C103 35.4 96.6 29 87 29H33V25C33 10.6 42.6 1 57 1ZM179.047 1V57H147.047V1H179.047ZM253.847 57H245.047V1H277.047V27C277.047 41.4 268.247 57 253.847 57ZM245.047 85H229.047V141H197.047V84.4C186.047 82 179.047 73.2 179.047 61V57H245.047V85ZM347.039 1H385.039C409.039 1 425.039 17 425.039 41V113H393.039V45C393.039 35.4 386.639 29 377.039 29H323.039V25C323.039 10.6 332.639 1 347.039 1ZM369.039 141H331.039C307.039 141 291.039 125 291.039 101V29H323.039V97C323.039 106.6 329.439 113 339.039 113H393.039V117C393.039 131.4 383.439 141 369.039 141ZM344.039 85V57H372.039V85H344.039ZM497.039 1H535.039C559.039 1 575.039 17 575.039 41V57H543.039V45C543.039 35.4 536.639 29 527.039 29H473.039V25C473.039 10.6 482.639 1 497.039 1Z" stroke="black" stroke-width="2"/>
</svg>
